<?xml version="1.0" encoding="UTF-8"?>
<svg id="Layer_2" data-name="Layer 2" xmlns="http://www.w3.org/2000/svg" viewBox="0 0 1080 572.12">
  <defs>
    <style>
      .cls-1 {
        fill: #fcbb7e;
      }

      .cls-2 {
        fill: #374391;
      }

      .cls-3 {
        fill: #141a45;
      }
    </style>
  </defs>
  <g id="Layer_1-2" data-name="Layer 1">
    <g>
      <g>
        <path class="cls-2" d="M403.14,164.07c-20.05-48.39-33.36-121.53,23.31-150.06,25.71-12.94,74.03-17.57,101.81-11.11,2.92.68,6.29,2.83,9.45,3.26l-2.2.48c-14.99-3.13-30.5-.96-45.02,3.45-51.95,15.76-63.65,59.32-54.89,108.82,5.03,28.41,16.62,55.29,27.96,81.57l48.85-96.7,96.71.57,4.5,175.14-54.64,2.02-.67-128.77c-.98-4.79-2.98-7.34-7.52-4.05-3.9,2.82-10.49,15.61-13.21,20.43-10.6,18.79-20.59,38.88-30.45,58.13-8.52,16.62-16.56,33.51-25.06,50.14-5.25-3.62-9.34-8.48-13.72-13.05-2.4-2.5-5.17-5.59-7.55-8.24-9.64-10.7-19.36-21.82-26.78-34.33-2.5-4.22-3.37-5.65-6.18-9.61-7.04-9.92-13.54-22.53-18.54-33.65-.57-3.4-.78-7.64-4.12-9.61-.07-.2.06-.48,0-.69-.46-1.54-.74-3.03-2.06-4.12Z"/>
        <path class="cls-3" d="M379.79,105.01c15,95.41,76.85,179,163.17,221.69,67.55,33.4,180.12,48.34,214.3-37.53.42-1.04-.4-1.86,1.54-1.51-1.52,39.82-22.28,75.36-59.27,91.44-33.41,14.52-78.51,13.29-113.63,5.59-105.16-23.04-182.45-118.16-227.75-210.33-.46,7.62-.54,15.38-.37,23.03.04,1.62.7,3.13.74,4.75.7,25.6,1.07,51.14,1.89,76.79-.53,2.33-8.31,10.3-10.48,12.18-4.89,4.23-16.2,11.7-22.69,10.99-6.74-.74-19.58-17.16-20.25-24.4l-.69-171.32,73.48-1.37Z"/>
        <path class="cls-2" d="M837.79,166.13l-50.82-.69c.22-8.71-4.44-15.02-13.36-15.82-15.86-1.42-36,.96-52.18,1.43-9.77.28-30.28-2.09-37.79,3.41-7.03,5.14-4.77,14.71-5.12,22.34-.64,13.7-1.93,30.96-1.16,44.5.68,12.06,10.08,14.21,20.1,15.47,23.61,2.95,50.07-.56,74.01.71,13.99-2.78,15.58-14.52,16.2-26.71l52.18.68c-.25,7.88.31,15.84.02,23.72-.32,8.75-.11,16.38-4.96,23.88-13.43,20.78-48.4,20.19-70.29,21.04-28.53,1.11-60.77,2.11-89.27.75-29.43-1.41-49.29-16.44-51.15-47.04-1.3-21.45-.1-46.45.74-67.98.63-16.18-1.19-30.64,10.61-43.64,17.01-18.74,54.24-13.77,77.63-14.38,27.34-.72,58.7-3.44,85.83-1.43,29.72,2.2,40.98,33.92,38.77,59.77Z"/>
        <path class="cls-1" d="M666.81,98.83c-8.79.51-17.64.8-26.43,1.38-4.69.31-12.69,2.47-17.03,1.22-1.42-.41-14.9-11.8-17.73-13.86-47.14-34.19-123.96-73.33-162.78-6.37-1.71,2.94-2.97,6.19-4.52,9.22-.81,1.57-1.02,1.43-.86-.17,1.27-12.38,13.29-36.96,21.02-46.97,50.34-65.21,158.99,5.34,202.84,47.64,2.22,2.14,4.85,4.74,5.48,7.9Z"/>
        <path class="cls-3" d="M321.95,305.35c-3.42,3.2-27.34,2.19-33.16,2.19-11.05,0-19.5.88-29.63-5.33-27.62-16.94-16.54-53.96-18.76-80.83.26-3.17,3.3-6.25,6.52-6.52,16.15,1.15,34.27-1.48,50.17-.02,3.59.33,6.06,2.03,6.51,5.85.96,8.23-.22,19.71-.27,28.28-.13,19.9-3.23,33.35,12.6,48.65,2.01,1.94,8.89,5.04,6.03,7.72ZM249.82,226.7c-3.99,1.99-2.75,5.42,1.19,6.07,12.84-1.16,28.01,1.43,40.56-.02,5.27-.61,5.09-5.65.71-6.22l-42.46.18ZM264.61,244.93c.78.77,2.5.79,3.58.88,5.31.46,19.04.69,24.02-.07,3.14-.48,4.53-3.36,2.14-5.49-2.51-2.25-13.29-.7-17.24-.61-3.1.07-13.26-2.16-13.26,3.06,0,.68.28,1.76.76,2.24ZM258.77,244.93c6.22-6.15-15.51-8.02-10.87-.83,1.5,2.33,9.32,2.36,10.87.83ZM294.47,257.97c1.62-1.38.58-4.61-1.36-5.5-1.86-.86-21.82-.88-24.85-.46-5.12.71-6.82,6.14-.75,6.84,5.49.63,17.04.46,22.7.01,1.01-.08,3.62-.34,4.26-.88Z"/>
        <path class="cls-1" d="M667.84,340.54c-.28-.04-1.96-.67-1.71-1.37,26.06,1.28,42.71-19.6,51.32-41.72.77-1.98,2.68-9.73,3.25-10.49,1.63-2.2,25.61.71,29.88.02-9.81,22.39-29.55,44.14-53.56,51.15-2.06.6-8.29,2.41-9.95,2.41-5.64,0-14,.73-19.23,0Z"/>
        <path class="cls-3" d="M409.32,178.49c-1.59-3.53-2.87-5.86-4.12-9.61,3.34,1.97,3.55,6.21,4.12,9.61Z"/>
        <path class="cls-3" d="M427.86,212.13c2.81,3.96,3.68,5.4,6.18,9.61-2.61-2.79-4.46-6.22-6.18-9.61Z"/>
        <path class="cls-3" d="M460.82,256.08c2.39,2.65,5.16,5.74,7.55,8.24l-7.55-8.24Z"/>
        <path class="cls-3" d="M405.2,168.19c-1.46-1.02-1.49-2.75-2.06-4.12,1.32,1.09,1.6,2.58,2.06,4.12Z"/>
      </g>
      <g>
        <path class="cls-1" d="M212.08,443.14c-4.94,5.33-7.41,12.54-7.41,21.66v78.59c0,19.15,10.76,28.73,32.29,28.73h56.19v-29.65h-47.45c-4.29,0-7.2-.38-8.73-1.15-2.07-1.3-3.1-3.98-3.1-8.04v-15.28h59.29v-29.19h-59.29v-15.28c0-3.9,1.19-6.51,3.56-7.81,1.53-.77,4.21-1.15,8.04-1.15h47.68v-29.42h-60.21c-8.96,0-15.91,2.66-20.85,7.99Z"/>
        <path class="cls-1" d="M514.47,532.36c0,4.13-.72,6.82-2.15,8.04-1.44,1.23-4.35,1.84-8.74,1.84h-21.78c-5.49,0-8.73-1.14-9.75-3.42-.76-1.35-1.14-3.67-1.14-6.96v-96.1h-32.16v98.74c0,25.07,11.1,37.61,33.31,37.61h41.41c22.11,0,33.18-12.62,33.18-37.86v-98.49h-32.17v96.6Z"/>
        <path class="cls-1" d="M388.97,435.76h-41.41c-22.2,0-33.31,12.54-33.31,37.61v98.74h32.17v-93.3c0-3.29.38-5.61,1.14-6.96,1.01-2.28,4.26-3.42,9.75-3.42h21.78c4.39,0,7.3.61,8.74,1.84,1.44,1.22,2.15,3.91,2.15,8.04v93.81h32.17v-98.49c0-25.24-11.06-37.86-33.18-37.86Z"/>
        <path class="cls-1" d="M150.37,435.76H33.31c-22.2,0-33.31,12.54-33.31,37.61v98.74h32.17v-93.3c0-3.29.38-5.61,1.14-6.96,1.01-2.28,4.26-3.42,9.75-3.42h21.78c4.39,0,7.3.61,8.74,1.84,1.26,1.07,1.93,3.34,2.09,6.65v95.19h32.23v-95.42c.14-2.18.49-3.8,1.08-4.84,1.01-2.28,4.26-3.42,9.75-3.42h21.78c4.39,0,7.3.61,8.73,1.84,1.44,1.22,2.15,3.91,2.15,8.04v93.81h32.16v-98.49c0-25.24-11.06-37.86-33.18-37.86Z"/>
        <path class="cls-1" d="M722.85,453.03c0-9.54-7.75-17.28-17.28-17.28h-39.09c-3.22,0-6.2.18-8.88.54-7.21.83-12.51,2.92-15.91,6.14-1.61,1.55-2.92,3.58-3.99,6.08-1.97,4.53-2.92,10.55-2.92,18.12v75.09c0,8.64,2.32,15.85,6.97,21.45,5.07,5.96,11.8,8.94,20.26,8.94h43.56c9.54,0,17.28-7.75,17.28-17.28v-1.01c.06-.36.06-.66.06-1.01v-20.5h-29.74v10.31h-29.32v-77.11h29.32v9.94h29.74v-20.56c0-.3,0-.66-.06-.95v-.89Z"/>
        <path class="cls-1" d="M776.61,540.21c-1.19-1.25-1.79-5.12-1.79-11.5v-92.96h-32.12v99.52c0,12.81,2.98,22.17,9.06,28.07,6.02,5.84,15.44,8.76,28.25,8.76h59.65l.3-29.86h-51.19c-6.73,0-10.79-.66-12.16-2.03Z"/>
        <path class="cls-1" d="M930.71,532.36c0,4.13-.72,6.82-2.15,8.04-1.44,1.23-4.35,1.84-8.73,1.84h-21.78c-5.49,0-8.74-1.14-9.75-3.42-.76-1.35-1.14-3.67-1.14-6.96v-96.1h-32.17v98.74c0,25.07,11.1,37.61,33.31,37.61h41.41c22.12,0,33.18-12.62,33.18-37.86v-98.49h-32.16v96.6Z"/>
        <path class="cls-1" d="M1067.9,503.51c7.75-4.05,11.62-12.63,11.62-25.74,0-14.9-.89-24.55-2.74-29.08-3.4-8.64-11.38-12.93-23.9-12.93h-69.78v136.35h68.41c9.18,0,16.27-2.8,21.28-8.46,4.83-5.24,7.21-12.57,7.21-21.93v-13.89c0-12.46-4.05-20.62-12.1-24.31ZM1050.5,535.04c0,5.07-2.21,7.57-6.56,7.57h-31.88v-24.37h31.47c4.65,0,6.97,2.74,6.97,8.22v8.58ZM1050.92,481.64c0,5.01-2.2,7.57-6.73,7.57h-32.12v-24.14h32.12c1.91,0,3.52.72,4.83,2.2,1.31,1.49,1.91,3.28,1.91,5.3v9.06Z"/>
      </g>
    </g>
  </g>
</svg>