<svg xmlns="http://www.w3.org/2000/svg" xmlns:xlink="http://www.w3.org/1999/xlink" xmlns:inkscape="http://www.inkscape.org/namespaces/inkscape" version="1.1" viewBox="-8.47 418.82 1092.47 244.50">
<defs>
<clipPath id="clip_1">
<path transform="matrix(1,0,0,-1,0,1080)" d="M0 1080H1080V0H0Z"/>
</clipPath>
<clipPath id="clip_2">
<path transform="matrix(1,0,0,-1,0,1080)" d="M0 1080H1080V0H0Z"/>
</clipPath>
<clipPath id="clip_3">
<path transform="matrix(1,0,0,-1,0,1080)" d="M0 1080H1080V0H0Z"/>
</clipPath>
<clipPath id="clip_4">
<path transform="matrix(1,0,0,-1,0,1080)" d="M0 1080H1080V0H0Z"/>
</clipPath>
<path id="font_5_151" d="M.598999 .027999878C.598999-.010665894 .5931651-.046498617 .5814972-.07949829 .5698293-.11249796 .5529938-.14099629 .5309906-.16499329 .5089976-.18900045 .48233543-.20783489 .45100404-.22149658 .41967265-.23516846 .38466899-.2420044 .34599305-.2420044H.27999879C.20533245-.2420044 .14733379-.21900432 .10600281-.17300415 .06467184-.12700399 .044006349-.06400045 .044006349 .01600647V.19799805H.16999817V.022003174C.16999817 .002665202 .17199707-.014836629 .17599488-.03050232 .18000286-.04616801 .18683879-.059499105 .19650269-.070495609 .20616658-.08150228 .21916199-.09000143 .23548889-.09599304 .25182597-.101994838 .2723287-.10499573 .29699708-.10499573H.34100343C.3670044-.10499573 .38850404-.101496379 .40550233-.09449768 .4225006-.087498988 .43599955-.077829997 .44599916-.06549072 .45599876-.05316162 .46299745-.03899638 .46699525-.022994996 .4710032-.006993612 .4730072 .01000468 .4730072 .027999878V.6199951H.598999V.027999878Z"/>
<path id="font_5_320" d="M.20300293 0C.18366497 0 .16532898 .0024973553 .147995 .0074920656 .13066101 .012496948 .115493778 .020996094 .102493289 .032989503 .0894928 .044993085 .07915751 .06082662 .07148743 .08049011 .063827518 .10016378 .05999756 .124669399 .05999756 .15400696V.6199951H.18699646V.18699646C.18699646 .15366109 .20166524 .13699341 .23100281 .13699341H.2579956C.2726644 .13699341 .27999879 .11499532 .27999879 .070999149 .27999879 .023666382 .2726644 0 .2579956 0H.20300293Z"/>
<path id="font_5_327" d="M0 0V0M.06599426 .13699341C.08533224 .13699341 .09933472 .14149475 .10800171 .15049744 .1166687 .15950012 .1210022 .17366536 .1210022 .19299317V.29699708H.2480011V.19299317C.2480011 .17366536 .2539978 .15950012 .2659912 .15049744 .27799479 .14149475 .29366557 .13699341 .31300355 .13699341H.3350067C.3503367 .13699341 .3580017 .11499532 .3580017 .070999149 .3580017 .023666382 .3503367 0 .3350067 0H.30799867C.28266908 0 .25950114 .003829956 .23849488 .011489868 .21749878 .019159953 .19866944 .035664876 .18200684 .06100464 .16467285 .035664876 .14650472 .019159953 .12750244 .011489868 .10850016 .003829956 .08799744 0 .06599426 0H0C-.008666992 0-.014500936 .0054982507-.017501831 .016494751-.020502726 .027501425-.022003174 .044001264-.022003174 .06599426-.022003174 .09133402-.020502726 .10950216-.017501831 .12049866-.014500936 .13149517-.008666992 .13699341 0 .13699341H.06599426M.30699159 .40699769H.18600464V.522995H.30699159V.40699769M.15299988 .40699769H.03199768V.522995H.15299988V.40699769Z"/>
<path id="font_5_302" d="M0 0V0M.06599426 .13699341C.08533224 .13699341 .09933472 .14149475 .10800171 .15049744 .1166687 .15950012 .1210022 .17366536 .1210022 .19299317V.29699708H.2480011V.19299317C.2480011 .17366536 .2539978 .15950012 .2659912 .15049744 .27799479 .14149475 .29366557 .13699341 .31300355 .13699341H.3350067C.3503367 .13699341 .3580017 .11499532 .3580017 .070999149 .3580017 .023666382 .3503367 0 .3350067 0H.30799867C.28266908 0 .25950114 .003829956 .23849488 .011489868 .21749878 .019159953 .19866944 .035664876 .18200684 .06100464 .16467285 .035664876 .14650472 .019159953 .12750244 .011489868 .10850016 .003829956 .08799744 0 .06599426 0H0C-.008666992 0-.014500936 .0054982507-.017501831 .016494751-.020502726 .027501425-.022003174 .044001264-.022003174 .06599426-.022003174 .09133402-.020502726 .10950216-.017501831 .12049866-.014500936 .13149517-.008666992 .13699341 0 .13699341H.06599426M.30699159-.22499085H.18600464V-.10899353H.30699159V-.22499085M.15299988-.22499085H.03199768V-.10899353H.15299988V-.22499085Z"/>
<path id="font_5_333" d="M0 0V0M.44400025 .14700318C.45199586 .14167278 .4611613 .13867188 .47149659 .13800049 .48183189 .1373291 .4933319 .13699341 .5059967 .13699341H.5549927C.56365969 .13699341 .5694936 .13165792 .5724945 .12098694 .5754954 .11032613 .57699587 .093663539 .57699587 .070999149 .57699587 .04633077 .5754954 .028330485 .5724945 .016998291 .5694936 .005666097 .56365969 0 .5549927 0H.5010071C.47833253 0 .45899455 .0023345948 .44299317 .007003784 .42700196 .011672974 .41333518 .018335978 .4019928 .026992798 .3906606 .03565979 .3813273 .04582723 .37399293 .057495119 .3666687 .069163 .360672 .08199564 .3560028 .09599304L.28599549 .054992677C.2666677 .04366048 .2480011 .034495038 .22999573 .027496338 .21200054 .02049764 .19300334 .01499939 .17300415 .011001587 .15300496 .007003784 .13133748 .004170736 .10800171 .0025024415 .08466593 .00083414718 .057998659 0 .027999878 0H0C-.008666992 0-.014500936 .0054982507-.017501831 .016494751-.020502726 .027501425-.022003174 .044001264-.022003174 .06599426-.022003174 .09133402-.020502726 .10950216-.017501831 .12049866-.014500936 .13149517-.008666992 .13699341 0 .13699341H.03300476C.057673139 .13699341 .07983907 .13716126 .09950256 .13749695 .119166057 .13783264 .13716126 .13899739 .15348816 .14099121 .16982524 .1429952 .18516033 .14633179 .19949341 .15100098 .21382649 .15567017 .22832744 .16200257 .24299622 .16999817L.34100343 .22599793C.33700563 .23132833 .3333384 .23582459 .33000184 .2394867 .32666526 .24315898 .32266236 .24599712 .31799317 .2480011 .31333415 .2500051 .30766807 .25133769 .30099488 .2519989 .29433189 .2526703 .2856649 .25300599 .2749939 .25300599H.070999149L.07699585 .39100648H.29699708C.31633506 .39100648 .33516947 .38800559 .35350038 .38200379 .37183128 .37600199 .3889974 .36483256 .40499879 .34849549 .42100016 .33216859 .4358317 .30967204 .4494934 .28100587 .46316529 .2523397 .4746653 .21533711 .48399354 .16999817L.44400025 .14700318M.31399537-.22999573H.18200684V-.10899353H.31399537V-.22999573Z"/>
<path id="font_5_301" d="M0 0V0M.09399414 .13699341C.113332118 .13699341 .12716675 .14149475 .13549805 .15049744 .14382935 .15950012 .147995 .17366536 .147995 .19299317V.29699708H.2749939V.18200684C.2749939 .12133789 .26049296 .07583618 .23149109 .04550171 .20249939 .015167236 .16033428 0 .10499573 0H0C-.008666992 0-.014500936 .0054982507-.017501831 .016494751-.020502726 .027501425-.022003174 .044001264-.022003174 .06599426-.022003174 .09133402-.020502726 .10950216-.017501831 .12049866-.014500936 .13149517-.008666992 .13699341 0 .13699341H.09399414M.2689972-.22499085H.14801026V-.10899353H.2689972V-.22499085M.11500549-.22499085H-.005996704V-.10899353H.11500549V-.22499085Z"/>
<path id="font_5_135" d="M.3959961 .2579956C.4146627 .23666382 .4284973 .21533203 .4375 .19400025 .4465027 .17266846 .45100404 .15200298 .45100404 .13200379 .45100404 .11399841 .4478353 .09699503 .4414978 .08099365 .4351705 .06500244 .4255066 .051005048 .4125061 .039001466 .39950563 .026997885 .3833364 .017496745 .3639984 .010498047 .34467063 .0034993489 .32233683 0 .29699708 0H.037994386L.03300476 .13699341H.2749939C.29232789 .13699341 .30099488 .14333089 .30099488 .15600586 .30099488 .16266887 .29766337 .16933187 .29100038 .17599488L.13200379 .3580017 .23100281 .45100404 .3959961 .2579956Z"/>
<path id="font_5_5" d=""/>
<path id="font_5_199" d="M.044006349 0V0M.352005-.10499573C.40466819-.10499573 .4434967-.09849548 .4684906-.085494998 .49349467-.07249451 .5059967-.05499776 .5059967-.03300476 .5059967-.011001587 .4950002 0 .4730072 0H.30200196V.20399475C.30200196 .22999573 .30599977 .2539978 .31399537 .27600099 .32200114 .29800416 .33366905 .3171692 .34899903 .3334961 .364329 .34983317 .3829956 .36249797 .40499879 .37149049 .42700196 .38049317 .45167033 .3849945 .4790039 .3849945H.59399417L.598999 .2480011H.4790039C.44566856 .2480011 .42900086 .23133342 .42900086 .19799805V.13699341H.49499513C.5469971 .13699341 .5828298 .12399292 .6024933 .09799194 .62216696 .07200114 .6320038 .035669965 .6320038-.011001587 .6320038-.044336957 .62550356-.07500204 .61250308-.102996829 .59950259-.13100179 .5813344-.15533448 .55799868-.17599488 .5346629-.19666545 .50682577-.21283467 .4744873-.22450257 .44215904-.23617046 .40699769-.2420044 .3690033-.2420044H.27999879C.20533245-.2420044 .14733379-.21900432 .10600281-.17300415 .06467184-.12700399 .044006349-.06400045 .044006349 .01600647V.19799805H.16999817V.022003174C.16999817 .002665202 .17199707-.014836629 .17599488-.03050232 .18000286-.04616801 .18683879-.059499105 .19650269-.070495609 .20616658-.08150228 .21916199-.09000143 .23548889-.09599304 .25182597-.101994838 .2723287-.10499573 .29699708-.10499573H.352005Z"/>
<path id="font_5_385" d="M.2400055 .28599549C.22466533 .28599549 .21199544 .2809957 .20199585 .2709961 .19199626 .2609965 .18699646 .2476654 .18699646 .23100281 .18699646 .21766663 .19132996 .20332845 .19999695 .18798828 .20866394 .17265828 .22266643 .1593272 .2420044 .147995 .26133219 .1593272 .2743276 .17265828 .2809906 .18798828 .2876638 .20332845 .29100038 .21766663 .29100038 .23100281 .29100038 .2476654 .28616334 .2609965 .27648927 .2709961 .26682536 .2809957 .2546641 .28599549 .2400055 .28599549M0 0C-.008666992 0-.014500936 .0054982507-.017501831 .016494751-.020502726 .027501425-.022003174 .044001264-.022003174 .06599426-.022003174 .09133402-.020502726 .10950216-.017501831 .12049866-.014500936 .13149517-.008666992 .13699341 0 .13699341H.11000061C.09600321 .15633138 .086003627 .17566426 .08000183 .19499207 .07400004 .21433003 .070999149 .23366802 .070999149 .25300599 .070999149 .274999 .07499695 .2959951 .08299255 .31599427 .09099833 .33599345 .10266622 .35349528 .117996219 .36849977 .13333638 .38350425 .15183513 .39550273 .17349243 .40449525 .19515991 .41349793 .21999614 .41799928 .2480011 .41799928 .2753347 .41799928 .29900108 .41333009 .31900025 .4039917 .33899943 .39466349 .35549928 .38232932 .36849977 .36698915 .38150025 .35165916 .39116416 .334493 .39749146 .31549073 .40382896 .29649864 .40699769 .2773336 .40699769 .2579956 .40699769 .23332723 .40349833 .2111613 .39649964 .1914978 .38950096 .1718343 .38033549 .15366619 .3690033 .13699341H.48399354C.5013275 .13699341 .5099945 .14333089 .5099945 .15600586 .5099945 .15933228 .50916036 .16266378 .50749209 .16600037 .5058339 .16933696 .5023346 .17467244 .49699403 .18200684L.34100343 .38000489 .43499757 .46800233 .59399417 .26400758C.61399337 .2386678 .62815859 .21533203 .63648989 .19400025 .64483138 .17266846 .6490021 .15200298 .6490021 .13200379 .6490021 .11399841 .6458333 .09699503 .63949587 .08099365 .6331685 .06500244 .62350466 .051005048 .61050418 .039001466 .59750369 .026997885 .5813344 .017496745 .56199648 .010498047 .54266867 .0034993489 .5203349 0 .49499513 0H.3849945C.3543345 0 .3271688 .0015004476 .3034973 .004501343 .27983604 .007502238 .26133729 .013336182 .2480011 .022003174 .23800151 .01667277 .22616577 .012507121 .2124939 .009506226 .1988322 .0065053307 .1848348 .0043385827 .17050171 .0030059815 .15616863 .0016733805 .14216614 .0008392334 .12849427 .00050354006 .11483256 .00016784668 .10333252 0 .09399414 0H0Z"/>
<path id="font_5_387" d="M.14300537-.10499573C.18767293-.10499573 .21967061-.094828289 .23899842-.07449341 .2583364-.0541687 .26966859-.029337565 .272995 0H.22599793C.19132996 0 .16299439 .0036671956 .14099121 .011001587 .11899821 .018335978 .10166931 .02933248 .08900452 .04399109 .07633972 .05865987 .06750488 .07649231 .0625 .0974884 .057495119 .11849467 .054992677 .1426646 .054992677 .16999817 .054992677 .19599915 .05865987 .22083028 .06599426 .24449158 .07332865 .26816307 .08416239 .28866578 .09849548 .30599977 .112828578 .32333375 .13082886 .33716838 .15249634 .34750367 .17416382 .35783897 .19933065 .3630066 .22799683 .3630066 .25066123 .3630066 .27216087 .3593394 .29249574 .352005 .3128306 .34467063 .33066307 .33300273 .34599305 .31700135 .36133323 .30099998 .37349955 .27999879 .38249208 .2539978 .39149476 .22799683 .3959961 .19632976 .3959961 .15899658V.13699341H.46800233C.4826711 .13699341 .4900055 .11499532 .4900055 .070999149 .4900055 .023666382 .4826711 0 .46800233 0H.39500428C.39300028-.032663984 .3859965-.06365967 .37399293-.09298706 .3619995-.12232462 .34549967-.147995 .3244934-.16999817 .3034973-.19200135 .27799989-.20950318 .2480011-.22250366 .21800232-.23550415 .18466695-.2420044 .147995-.2420044H.05000305L.044006349-.10499573H.14300537M.17599488 .17999268C.17599488 .16400147 .17949422 .15283711 .18649292 .14649964 .19350179 .14016216 .20667012 .13699341 .22599793 .13699341H.2749939V.16499329C.2749939 .19033306 .27082826 .20766704 .26249696 .21699524 .25416566 .22633362 .24133301 .23100281 .22399903 .23100281 .19199626 .23100281 .17599488 .21399944 .17599488 .17999268Z"/>
<path id="font_5_383" d="M0 0V0M.06599426 .13699341C.08533224 .13699341 .09933472 .14149475 .10800171 .15049744 .1166687 .15950012 .1210022 .17366536 .1210022 .19299317V.29699708H.2480011V.19299317C.2480011 .17366536 .2539978 .15950012 .2659912 .15049744 .27799479 .14149475 .29366557 .13699341 .31300355 .13699341H.3350067C.3503367 .13699341 .3580017 .11499532 .3580017 .070999149 .3580017 .023666382 .3503367 0 .3350067 0H.30799867C.28266908 0 .25950114 .003829956 .23849488 .011489868 .21749878 .019159953 .19866944 .035664876 .18200684 .06100464 .16467285 .035664876 .14650472 .019159953 .12750244 .011489868 .10850016 .003829956 .08799744 0 .06599426 0H0C-.008666992 0-.014500936 .0054982507-.017501831 .016494751-.020502726 .027501425-.022003174 .044001264-.022003174 .06599426-.022003174 .09133402-.020502726 .10950216-.017501831 .12049866-.014500936 .13149517-.008666992 .13699341 0 .13699341H.06599426M.24198914 .40699769H.11000061V.5279999H.24198914V.40699769Z"/>
<path id="font_5_379" d="M.005004883 .13699341C.025004069 .13699341 .041000368 .14049275 .052993776 .14749146 .06499735 .15450032 .070999149 .16766866 .070999149 .18699646V.19799805C.070999149 .22399903 .07499695 .24816387 .08299255 .27049256 .09099833 .29283143 .10233561 .31200157 .117004398 .32800294 .13167317 .3440043 .14967346 .3566691 .17100525 .3659973 .19233704 .3753357 .21600342 .38000489 .2420044 .38000489 .26933799 .38000489 .29367066 .3753357 .31500245 .3659973 .33633424 .3566691 .35416667 .34383647 .36849977 .3274994 .38283286 .31116233 .39382936 .29149375 .40148927 .26849366 .40915934 .24549358 .41299439 .22032674 .41299439 .19299317 .41299439 .13166301 .39749656 .08416239 .36650086 .050491334 .33550517 .016830445 .29400636 0 .2420044 0 .21600342 0 .1908366 .005330404 .1665039 .015991211 .14217122 .026662192 .12433878 .041666669 .11300659 .06100464 .10033163 .038330079 .083994548 .022491456 .06399536 .0134887699 .043996175 .0044962565 .024332682 0 .005004883 0H0C-.008666992 0-.014500936 .0054982507-.017501831 .016494751-.020502726 .027501425-.022003174 .044001264-.022003174 .06599426-.022003174 .09133402-.020502726 .10950216-.017501831 .12049866-.014500936 .13149517-.008666992 .13699341 0 .13699341H.005004883M.29100038 .18699646C.29100038 .20099385 .2876638 .21365865 .2809906 .22499085 .2743276 .2363332 .26133219 .2420044 .2420044 .2420044 .22266643 .2420044 .20966085 .2363332 .20298767 .22499085 .19632466 .21365865 .19299317 .20099385 .19299317 .18699646 .19299317 .15366109 .20933025 .13699341 .2420044 .13699341 .27466838 .13699341 .29100038 .15366109 .29100038 .18699646Z"/>
<path id="font_5_300" d="M.044006349 0V0M.37399293-.10499573C.3999939-.10499573 .42149354-.10383097 .43849183-.101501468 .45550028-.09917196 .4690043-.09567261 .4790039-.09100342 .4890035-.08633423 .4960022-.08016459 .5-.07249451 .5039978-.064834598 .5059967-.055338544 .5059967-.044006349 .5059967-.032663984 .50282797-.022491456 .49649049-.0134887699 .49016319-.0044962565 .4786682 0 .46200563 0H.3350067L.34100343 .13699341H.68200686C.69666549 .13699341 .70399478 .11499532 .70399478 .070999149 .70399478 .023666382 .69666549 0 .68200686 0H.6049957C.6196645-.009999593 .6269989-.03199768 .6269989-.06599426 .6269989-.083999637 .62283328-.10333252 .61450198-.12399292 .60617068-.1446635 .5928345-.16366577 .5744934-.18099976 .55616256-.19833374 .5319977-.21283467 .5019989-.22450257 .47200013-.23617046 .43500266-.2420044 .39100648-.2420044H.27999879C.20533245-.2420044 .14733379-.21900432 .10600281-.17300415 .06467184-.12700399 .044006349-.06400045 .044006349 .01600647V.19799805H.16999817V.022003174C.16999817 .002665202 .17199707-.014836629 .17599488-.03050232 .18000286-.04616801 .18683879-.059499105 .19650269-.070495609 .20616658-.08150228 .21916199-.09000143 .23548889-.09599304 .25182597-.101994838 .2723287-.10499573 .29699708-.10499573H.37399293Z"/>
<path id="font_5_352" d="M.28599549 .13699341C.33266703 .21966553 .3773346 .28083293 .41999818 .3204956 .46266175 .36016847 .5059967 .38000489 .55000308 .38000489 .5773366 .38000489 .60199996 .37516786 .6239929 .36549378 .6459961 .35582987 .6644948 .34233094 .67948916 .32499696 .6944936 .30766297 .70599368 .28716026 .71398928 .26348878 .72199508 .23982747 .7259979 .21433003 .7259979 .18699646 .7259979 .17367046 .72500106 .16066997 .7230072 .147995 .7343394 .1426646 .7455037 .13949585 .75650027 .13848877 .76749679 .13749187 .7776642 .13699341 .78700259 .13699341H.79800418C.8126729 .13699341 .8200073 .11499532 .8200073 .070999149 .8200073 .023666382 .8126729 0 .79800418 0H.78700259C.77899679 0 .77049258 .00016784668 .76148989 .00050354006 .7524974 .0008392334 .7430013 .002339681 .7330017 .005004883 .72300216 .0076700847 .7126668 .011998494 .70199587 .017990113 .691335 .023991904 .68000289 .03232829 .66799929 .042999269 .65266928 .029663086 .63483688 .019159953 .61450198 .011489868 .59416708 .003829956 .5706685 0 .54400637 0H.27999879C.2553304 0 .23233032 .003829956 .21099854 .011489868 .18966675 .019159953 .17066956 .035664876 .15400696 .06100464 .13733419 .035664876 .11932882 .019159953 .099990848 .011489868 .08066305 .003829956 .05999756 0 .037994386 0H0C-.008666992 0-.014500936 .0054982507-.017501831 .016494751-.020502726 .027501425-.022003174 .044001264-.022003174 .06599426-.022003174 .09133402-.020502726 .10950216-.017501831 .12049866-.014500936 .13149517-.008666992 .13699341 0 .13699341H.037994386C.07532755 .13699341 .09399414 .15565999 .09399414 .19299317V.29699708H.22000122V.19299317C.22000122 .17366536 .22616577 .15950012 .23849488 .15049744 .25083415 .14149475 .2666677 .13699341 .28599549 .13699341M.598999 .18699646C.598999 .19233704 .597997 .19817098 .59599307 .20449829 .5939992 .21083577 .5904999 .21683757 .585495 .22250366 .5805003 .22816976 .5741679 .23283386 .5664978 .23649597 .5588277 .24016826 .5496623 .2420044 .53900149 .2420044 .52233889 .2420044 .50400289 .23417156 .48399354 .21850586 .46399436 .20284017 .44032798 .17566936 .41299439 .13699341H.55000308C.56666567 .13699341 .57899478 .14182537 .58699038 .15148926 .59499618 .16116333 .598999 .17299907 .598999 .18699646Z"/>
<path id="font_5_339" d="M0 0V0M.44400025 .14700318C.45199586 .14167278 .4611613 .13867188 .47149659 .13800049 .48183189 .1373291 .4933319 .13699341 .5059967 .13699341H.5549927C.56365969 .13699341 .5694936 .13165792 .5724945 .12098694 .5754954 .11032613 .57699587 .093663539 .57699587 .070999149 .57699587 .04633077 .5754954 .028330485 .5724945 .016998291 .5694936 .005666097 .56365969 0 .5549927 0H.5010071C.47833253 0 .45899455 .0023345948 .44299317 .007003784 .42700196 .011672974 .41333518 .018335978 .4019928 .026992798 .3906606 .03565979 .3813273 .04582723 .37399293 .057495119 .3666687 .069163 .360672 .08199564 .3560028 .09599304L.28599549 .054992677C.2666677 .04366048 .2480011 .034495038 .22999573 .027496338 .21200054 .02049764 .19300334 .01499939 .17300415 .011001587 .15300496 .007003784 .13133748 .004170736 .10800171 .0025024415 .08466593 .00083414718 .057998659 0 .027999878 0H0C-.008666992 0-.014500936 .0054982507-.017501831 .016494751-.020502726 .027501425-.022003174 .044001264-.022003174 .06599426-.022003174 .09133402-.020502726 .10950216-.017501831 .12049866-.014500936 .13149517-.008666992 .13699341 0 .13699341H.03300476C.057673139 .13699341 .07983907 .13716126 .09950256 .13749695 .119166057 .13783264 .13716126 .13899739 .15348816 .14099121 .16982524 .1429952 .18516033 .14633179 .19949341 .15100098 .21382649 .15567017 .22832744 .16200257 .24299622 .16999817L.34100343 .22599793C.33700563 .23132833 .3333384 .23582459 .33000184 .2394867 .32666526 .24315898 .32266236 .24599712 .31799317 .2480011 .31333415 .2500051 .30766807 .25133769 .30099488 .2519989 .29433189 .2526703 .2856649 .25300599 .2749939 .25300599H.070999149L.07699585 .39100648H.29699708C.31633506 .39100648 .33516947 .38800559 .35350038 .38200379 .37183128 .37600199 .3889974 .36483256 .40499879 .34849549 .42100016 .33216859 .4358317 .30967204 .4494934 .28100587 .46316529 .2523397 .4746653 .21533711 .48399354 .16999817L.44400025 .14700318M.31399537 .4900055H.18200684V.6110077H.31399537V.4900055Z"/>
<path id="font_5_326" d="M0 0V0M.09399414 .13699341C.113332118 .13699341 .12716675 .14149475 .13549805 .15049744 .14382935 .15950012 .147995 .17366536 .147995 .19299317V.29699708H.2749939V.18200684C.2749939 .12133789 .26049296 .07583618 .23149109 .04550171 .20249939 .015167236 .16033428 0 .10499573 0H0C-.008666992 0-.014500936 .0054982507-.017501831 .016494751-.020502726 .027501425-.022003174 .044001264-.022003174 .06599426-.022003174 .09133402-.020502726 .10950216-.017501831 .12049866-.014500936 .13149517-.008666992 .13699341 0 .13699341H.09399414M.27398683 .40699769H.15299988V.522995H.27398683V.40699769M.11999512 .40699769H-.0010070801V.522995H.11999512V.40699769Z"/>
<path id="font_5_371" d="M.647995 0C.64600118-.032663984 .6390025-.06365967 .6269989-.09298706 .6149953-.12232462 .5984955-.147995 .5774994-.16999817 .5565033-.19200135 .53116866-.20950318 .50149539-.22250366 .47183229-.23550415 .43866477-.2420044 .4019928-.2420044H.27999879C.20533245-.2420044 .14733379-.21900432 .10600281-.17300415 .06467184-.12700399 .044006349-.06400045 .044006349 .01600647V.19799805H.16999817V.022003174C.16999817 .002665202 .17199707-.014836629 .17599488-.03050232 .18000286-.04616801 .18683879-.059499105 .19650269-.070495609 .20616658-.08150228 .21916199-.09000143 .23548889-.09599304 .25182597-.101994838 .2723287-.10499573 .29699708-.10499573H.3959961C.44066368-.10499573 .47266136-.094828289 .49198915-.07449341 .5113271-.0541687 .52266439-.029337565 .526001 0H.4790039C.44433595 0 .41600038 .0036671956 .3939972 .011001587 .37199403 .018335978 .35466004 .02933248 .34199525 .04399109 .32933045 .05865987 .3204956 .07649231 .31549073 .0974884 .310496 .11849467 .30799867 .1426646 .30799867 .16999817 .30799867 .19599915 .31166587 .22083028 .31900025 .24449158 .32633464 .26816307 .33716838 .28866578 .35150147 .30599977 .36583457 .32333375 .38383485 .33716838 .40550233 .34750367 .4271698 .35783897 .45233665 .3630066 .4810028 .3630066 .5036672 .3630066 .5251668 .3593394 .5455017 .352005 .5658366 .34467063 .583669 .33300273 .598999 .31700135 .61432906 .30099998 .62649539 .27999879 .63549807 .2539978 .64450076 .22799683 .6490021 .19632976 .6490021 .15899658V.13699341H.72099307C.7356618 .13699341 .7429962 .11499532 .7429962 .070999149 .7429962 .023666382 .7356618 0 .72099307 0H.647995M.42900086 .17999268C.42900086 .16400147 .4325002 .15283711 .4394989 .14649964 .4464976 .14016216 .45966593 .13699341 .4790039 .13699341H.5279999V.16499329C.5279999 .19033306 .5238342 .20766704 .5155029 .21699524 .50717166 .22633362 .494339 .23100281 .477005 .23100281 .44500224 .23100281 .42900086 .21399944 .42900086 .17999268M.6159973 .45100404H.49499513V.56700137H.6159973V.45100404M.46200563 .45100404H.34100343V.56700137H.46200563V.45100404Z"/>
<path id="font_5_376" d="M.022003174 .13699341C.041330976 .13699341 .05532837 .14149475 .06399536 .15049744 .07266235 .15950012 .07699585 .17366536 .07699585 .19299317V.6199951H.20399475V.18200684C.20399475 .12133789 .18932598 .07583618 .1599884 .04550171 .13066101 .015167236 .08833313 0 .03300476 0H0C-.008666992 0-.014500936 .0054982507-.017501831 .016494751-.020502726 .027501425-.022003174 .044001264-.022003174 .06599426-.022003174 .09133402-.020502726 .10950216-.017501831 .12049866-.014500936 .13149517-.008666992 .13699341 0 .13699341H.022003174Z"/>
<path id="font_5_338" d="M0 0V0M.28599549 .054992677C.2666677 .04366048 .2480011 .034495038 .22999573 .027496338 .21200054 .02049764 .19300334 .01499939 .17300415 .011001587 .15300496 .007003784 .13133748 .004170736 .10800171 .0025024415 .08466593 .00083414718 .057998659 0 .027999878 0H0C-.008666992 0-.014500936 .0054982507-.017501831 .016494751-.020502726 .027501425-.022003174 .044001264-.022003174 .06599426-.022003174 .09133402-.020502726 .10950216-.017501831 .12049866-.014500936 .13149517-.008666992 .13699341 0 .13699341H.03300476C.057673139 .13699341 .07983907 .13716126 .09950256 .13749695 .119166057 .13783264 .13716126 .13899739 .15348816 .14099121 .16982524 .1429952 .18516033 .14633179 .19949341 .15100098 .21382649 .15567017 .22832744 .16200257 .24299622 .16999817L.34100343 .22599793C.33700563 .23132833 .3333384 .23582459 .33000184 .2394867 .32666526 .24315898 .32266236 .24599712 .31799317 .2480011 .31333415 .2500051 .30766807 .25133769 .30099488 .2519989 .29433189 .2526703 .2856649 .25300599 .2749939 .25300599H.070999149L.07699585 .39100648H.29699708C.31633506 .39100648 .33516947 .38800559 .35350038 .38200379 .37183128 .37600199 .3889974 .36483256 .40499879 .34849549 .42100016 .33216859 .4358317 .30967204 .4494934 .28100587 .46316529 .2523397 .4746653 .21533711 .48399354 .16999817L.28599549 .054992677M.31399537 .4900055H.18200684V.6110077H.31399537V.4900055Z"/>
</defs>
<g inkscape:groupmode="layer" inkscape:label="Layer 1">
<g clip-path="url(#clip_1)">
<path transform="matrix(1,0,0,-1,197.0601,581.7772)" d="M0 0-28.82-1.06-29.17 66.85C-29.68 69.37-30.74 70.72-33.14 68.99-35.2 67.5-38.67 60.75-40.1 58.21-45.69 48.3-50.96 37.71-56.17 27.56-60.66 18.79-64.9 9.88-69.38 1.11-72.15 3.02-74.31 5.59-76.62 7.99-77.88 9.31-79.34 10.94-80.6 12.34-85.69 17.98-90.81 23.85-94.72 30.44-96.1 31.92-97.08 33.72-97.98 35.51-101.7 40.75-105.13 47.4-107.76 53.26-108.6 55.12-109.28 56.35-109.93 58.33-109.97 58.44-109.9 58.58-109.93 58.69-110.71 59.23-110.72 60.14-111.02 60.86-121.59 86.39-128.61 124.96-98.72 140.01-85.17 146.83-59.68 149.27-45.03 145.87-43.49 145.51-41.71 144.37-40.05 144.15L-41.2 143.9C-49.11 145.55-57.29 144.4-64.95 142.08-92.34 133.77-98.52 110.79-93.89 84.69-91.24 69.71-85.13 55.53-79.15 41.67L-53.38 92.67-2.38 92.37Z" fill="#ffffff"/>
<path transform="matrix(1,0,0,-1,73.7276,489.76759)" d="M0 0C7.91-50.321 40.529-94.406 86.058-116.92 121.683-134.537 181.05-142.412 199.081-97.126 199.3-96.575 198.871-96.147 199.896-96.332 199.095-117.331 188.147-136.075 168.636-144.557 151.017-152.216 127.228-151.564 108.706-147.506 53.245-135.357 12.479-85.187-11.41-36.579-11.656-40.597-11.694-44.692-11.605-48.724-11.586-49.58-11.236-50.372-11.213-51.229-10.842-64.732-10.651-78.202-10.217-91.727-10.495-92.955-14.601-97.159-15.745-98.15-18.322-100.381-24.289-104.322-27.711-103.947-31.264-103.558-38.035-94.897-38.389-91.08L-38.752-.724Z" fill="#ffffff"/>
<path transform="matrix(1,0,0,-1,315.2727,522.0014)" d="M0 0-26.801 .363C-26.684 4.956-29.144 8.286-33.847 8.708-42.211 9.457-52.835 8.202-61.369 7.954-66.52 7.804-77.338 9.055-81.3 6.157-85.008 3.444-83.813-1.603-84.002-5.626-84.342-12.853-85.018-21.956-84.616-29.098-84.258-35.457-79.299-36.594-74.015-37.254-61.561-38.81-47.606-36.957-34.98-37.629-27.599-36.163-26.764-29.973-26.434-23.54L1.086-23.897C.955-28.053 1.252-32.251 1.099-36.408 .931-41.024 1.042-45.048-1.515-49.003-8.599-59.96-27.039-59.65-38.584-60.098-53.631-60.681-70.635-61.21-85.664-60.492-101.188-59.75-111.661-51.822-112.641-35.684-113.328-24.371-112.691-11.187-112.249 .168-111.917 8.699-112.877 16.328-106.655 23.182-97.682 33.065-78.049 30.443-65.715 30.768-51.296 31.148-34.756 32.581-20.447 31.523-4.77 30.364 1.168 13.635 0 0" fill="#ffffff"/>
<path transform="matrix(1,0,0,-1,225.0972,486.5083)" d="M0 0C-4.636-.269-9.301-.423-13.937-.73-16.409-.894-20.63-2.03-22.916-1.373-23.664-1.158-30.773 4.85-32.267 5.934-57.13 23.967-97.641 44.608-118.116 9.295-119.016 7.743-119.684 6.028-120.502 4.432-120.928 3.602-121.041 3.676-120.954 4.52-120.283 11.05-113.946 24.011-109.869 29.294-83.32 63.687-26.017 26.479-2.891 4.167-1.721 3.039-.33 1.668 0 0" fill="#fcbb7f"/>
</g>
<g clip-path="url(#clip_2)">
<path transform="matrix(1,0,0,-1,28.7277,570.437)" d="M0 0C.857 .729 .304 2.431-.717 2.903-1.699 3.357-12.226 3.37-13.824 3.147-16.525 2.772-17.422-.089-14.217-.458-11.324-.79-5.23-.699-2.248-.465-1.715-.423-.338-.287 0 0M-18.828 6.88C-15.546 10.121-27.006 11.11-24.561 7.32-23.77 6.093-19.643 6.075-18.828 6.88M-15.751 6.879C-15.34 6.473-14.432 6.464-13.864 6.415-11.063 6.174-3.823 6.05-1.198 6.454 .456 6.709 1.192 8.224-.067 9.349-1.392 10.533-7.076 9.719-9.158 9.672-10.793 9.635-16.152 10.813-16.151 8.059-16.151 7.698-16.003 7.129-15.751 6.879M-23.55 16.493C-25.657 15.444-24.998 13.633-22.921 13.291-16.148 13.902-8.146 12.539-1.529 13.304 1.251 13.625 1.155 16.284-1.157 16.586ZM14.49-24.99C12.687-26.678 .073-26.146-2.999-26.148-8.829-26.151-13.282-26.613-18.626-23.336-33.194-14.401-27.348 5.124-28.523 19.294-28.388 20.965-26.782 22.591-25.083 22.734-16.565 22.125-7.011 23.515 1.379 22.743 3.274 22.569 4.574 21.67 4.81 19.656 5.318 15.316 4.694 9.263 4.665 4.739 4.598-5.756 2.961-12.851 11.311-20.921 12.369-21.944 16-23.577 14.49-24.99" fill="#ffffff"/>
</g>
<g clip-path="url(#clip_3)">
<path transform="matrix(1,0,0,-1,225.6423,613.982)" d="M0 0C-.148 .021-1.036 .356-.904 .721 12.843 .043 21.622 11.057 26.163 22.725 26.569 23.768 27.577 27.854 27.875 28.256 28.737 29.417 41.383 27.883 43.636 28.245 38.461 16.439 28.052 4.967 15.389 1.269 14.305 .952 11.018 0 10.14 0 7.165 0 2.755-.384 0 0" fill="#fcbb7f"/>
<path transform="matrix(1,0,0,-1,116.4584,569.43936)" d="M0 0C1.259-1.398 2.72-3.029 3.983-4.346Z" fill="#ffffff"/>
<path transform="matrix(1,0,0,-1,489.2275,465.23713)" d="M0 0C-3.361-3.625-5.043-8.539-5.043-14.742V-68.238C-5.043-81.273 2.282-87.791 16.933-87.791H55.178V-67.612H22.878C19.956-67.612 17.976-67.352 16.933-66.83 15.524-65.944 14.82-64.12 14.82-61.356V-50.954H55.178V-31.088H14.82V-20.686C14.82-18.028 15.628-16.256 17.246-15.368 18.288-14.847 20.114-14.586 22.72-14.586H55.178V5.436H14.194C8.094 5.436 3.364 3.623 0 0" fill="#fcbb7f"/>
<path transform="matrix(1,0,0,-1,695.0602,525.9696)" d="M0 0C0-2.814-.487-4.641-1.466-5.472-2.444-6.306-4.425-6.722-7.412-6.722H-22.239C-25.974-6.722-28.185-5.946-28.874-4.395-29.393-3.476-29.651-1.895-29.651 .345V65.754H-51.544V-1.458C-51.544-18.524-43.987-27.059-28.874-27.059H-.689C14.364-27.059 21.894-18.468 21.894-1.286V65.754H0Z" fill="#fcbb7f"/>
<path transform="matrix(1,0,0,-1,609.633,460.2151)" d="M0 0H-28.185C-43.297 0-50.856-8.535-50.856-25.6V-92.813H-28.961V-29.306C-28.961-27.066-28.704-25.485-28.185-24.566-27.496-23.015-25.285-22.239-21.549-22.239H-6.722C-3.735-22.239-1.755-22.655-.776-23.489 .202-24.32 .689-26.147 .689-28.961V-92.813H22.584V-25.772C22.584-8.59 15.053 0 0 0" fill="#fcbb7f"/>
<path transform="matrix(1,0,0,-1,447.2279,460.2151)" d="M0 0H-21.038-28.185-79.685C-94.797 0-102.355-8.535-102.355-25.6V-92.813H-80.461V-29.306C-80.461-27.066-80.204-25.485-79.685-24.566-78.995-23.015-76.785-22.239-73.049-22.239H-58.222C-55.235-22.239-53.255-22.655-52.276-23.489-51.418-24.219-50.96-25.76-50.855-28.017V-92.813H-50.811-28.961-28.916V-27.861C-28.824-26.376-28.583-25.272-28.185-24.566-27.495-23.015-25.285-22.239-21.549-22.239H-6.722C-3.735-22.239-1.754-22.655-.776-23.489 .203-24.32 .69-26.147 .69-28.961V-92.813H22.584V-25.772C22.584-8.59 15.053 0 0 0" fill="#fcbb7f"/>
<path transform="matrix(1,0,0,-1,836.9008,471.97248)" d="M0 0C0 6.49-5.273 11.764-11.764 11.764H-12.981-20.201-38.374C-40.564 11.764-42.592 11.642-44.418 11.398-49.326 10.831-52.936 9.411-55.249 7.221-56.343 6.166-57.236 4.787-57.966 3.083-59.305 0-59.953-4.097-59.953-9.248V-60.359C-59.953-66.241-58.372-71.149-55.208-74.962-51.76-79.018-47.176-81.047-41.416-81.047H-11.764C-5.273-81.047 0-75.773 0-69.283V-68.594C.04-68.35 .04-68.147 .04-67.904V-53.95H-20.201V-60.967H-40.159V-8.484H-20.201V-15.252H.04V-1.257C.04-1.055 .04-.811 0-.608Z" fill="#fcbb7f"/>
<path transform="matrix(1,0,0,-1,873.4893,531.3126)" d="M0 0C-.811 .852-1.216 3.488-1.216 7.829V71.104H-23.081V3.362C-23.081-5.359-21.053-11.728-16.915-15.744-12.818-19.719-6.409-21.706 2.312-21.706H29.409 42.917L43.12-1.379H8.275C3.692-1.379 .933-.933 0 0" fill="#fcbb7f"/>
<path transform="matrix(1,0,0,-1,978.3814,525.9696)" d="M0 0C0-2.814-.487-4.641-1.466-5.472-2.444-6.306-4.425-6.722-7.412-6.722H-22.239C-25.974-6.722-28.185-5.946-28.874-4.395-29.393-3.476-29.651-1.895-29.651 .345V65.754H-51.545V-1.458C-51.545-18.524-43.987-27.059-28.874-27.059H-.69C14.364-27.059 21.894-18.468 21.894-1.286V65.754H0Z" fill="#fcbb7f"/>
</g>
<g clip-path="url(#clip_4)">
<path transform="matrix(1,0,0,-1,1060.2045,491.4431)" d="M0 0C0-3.408-1.5-5.152-4.583-5.152H-26.447V11.277H-4.583C-3.286 11.277-2.19 10.79-1.298 9.776-.405 8.762 0 7.545 0 6.166ZM-.283-36.345C-.283-39.793-1.785-41.497-4.746-41.497H-26.447V-24.906H-5.03C-1.865-24.906-.283-26.772-.283-30.504ZM11.561-14.887C16.835-12.129 19.471-6.287 19.471 2.637 19.471 12.778 18.863 19.349 17.605 22.432 15.293 28.313 9.857 31.234 1.339 31.234H-46.161V-61.576H.406C6.653-61.576 11.48-59.67 14.888-55.816 18.173-52.246 19.796-47.257 19.796-40.889V-31.437C19.796-22.959 17.037-17.402 11.561-14.887" fill="#fcbb7f"/>
</g>
<use data-text="&#x0644;" xlink:href="#font_5_151" transform="matrix(64.5456,0,0,-64.5456,351.8203,627.4404)" fill="#ffffff"/>
<use data-text="&#xfe8e;" xlink:href="#font_5_320" transform="matrix(64.5456,0,0,-64.5456,394.35588,627.4404)" fill="#ffffff"/>
<use data-text="&#xfe98;" xlink:href="#font_5_327" transform="matrix(64.5456,0,0,-64.5456,411.00865,627.4404)" fill="#ffffff"/>
<use data-text="&#xfbff;" xlink:href="#font_5_302" transform="matrix(64.5456,0,0,-64.5456,432.6314,627.4404)" fill="#ffffff"/>
<use data-text="&#xfea0;" xlink:href="#font_5_333" transform="matrix(64.5456,0,0,-64.5456,454.25419,627.4404)" fill="#ffffff"/>
<use data-text="&#xfbfe;" xlink:href="#font_5_301" transform="matrix(64.5456,0,0,-64.5456,490.077,627.4404)" fill="#ffffff"/>
<use data-text="&#x062f;" xlink:href="#font_5_135" transform="matrix(64.5456,0,0,-64.5456,511.05433,627.4404)" fill="#ffffff"/>
<use data-text=" " xlink:href="#font_5_5" transform="matrix(64.5456,0,0,-64.5456,543.0044,627.4404)" fill="#ffffff"/>
<use data-text="&#x06cc;" xlink:href="#font_5_199" transform="matrix(64.5456,0,0,-64.5456,551.5244,627.4404)" fill="#ffffff"/>
<use data-text="&#xfe8e;" xlink:href="#font_5_320" transform="matrix(64.5456,0,0,-64.5456,595.1572,627.4404)" fill="#ffffff"/>
<use data-text="&#xfeeb;" xlink:href="#font_5_385" transform="matrix(64.5456,0,0,-64.5456,611.81,627.4404)" fill="#ffffff"/>
<use data-text="&#xfeee;" xlink:href="#font_5_387" transform="matrix(64.5456,0,0,-64.5456,656.5401,627.4404)" fill="#ffffff"/>
<use data-text="&#xfee8;" xlink:href="#font_5_383" transform="matrix(64.5456,0,0,-64.5456,686.74746,627.4404)" fill="#ffffff"/>
<use data-text="&#xfee3;" xlink:href="#font_5_379" transform="matrix(64.5456,0,0,-64.5456,708.37026,627.4404)" fill="#ffffff"/>
<use data-text=" " xlink:href="#font_5_5" transform="matrix(64.5456,0,0,-64.5456,738.2549,627.4404)" fill="#ffffff"/>
<use data-text="&#xfbfd;" xlink:href="#font_5_300" transform="matrix(64.5456,0,0,-64.5456,746.7749,627.4404)" fill="#ffffff"/>
<use data-text="&#xfebc;" xlink:href="#font_5_352" transform="matrix(64.5456,0,0,-64.5456,790.795,627.4404)" fill="#ffffff"/>
<use data-text="&#xfebc;" xlink:href="#font_5_352" transform="matrix(64.5456,0,0,-64.5456,842.30239,627.4404)" fill="#ffffff"/>
<use data-text="&#xfea8;" xlink:href="#font_5_339" transform="matrix(64.5456,0,0,-64.5456,893.80978,627.4404)" fill="#ffffff"/>
<use data-text="&#xfe97;" xlink:href="#font_5_326" transform="matrix(64.5456,0,0,-64.5456,929.63259,627.4404)" fill="#ffffff"/>
<use data-text=" " xlink:href="#font_5_5" transform="matrix(64.5456,0,0,-64.5456,950.60989,627.4404)" fill="#ffffff"/>
<use data-text="&#xfed6;" xlink:href="#font_5_371" transform="matrix(64.5456,0,0,-64.5456,959.1299,627.4404)" fill="#ffffff"/>
<use data-text="&#xfedf;" xlink:href="#font_5_376" transform="matrix(64.5456,0,0,-64.5456,1005.66726,627.4404)" fill="#ffffff"/>
<use data-text="&#xfe8e;" xlink:href="#font_5_320" transform="matrix(64.5456,0,0,-64.5456,1022.7073,627.4404)" fill="#ffffff"/>
<use data-text="&#xfea7;" xlink:href="#font_5_338" transform="matrix(64.5456,0,0,-64.5456,1039.36,627.4404)" fill="#ffffff"/>
</g>
</svg>
